<svg id="_1" data-name="1" xmlns="http://www.w3.org/2000/svg" viewBox="0 0 614.6 631.77"><defs><style>.cls-1{fill:#ce202a;}.cls-2{fill:#018c45;}.cls-3{fill:#fff;stroke:#231f20;stroke-miterlimit:10;stroke-width:2px;}</style></defs><title>Italy</title><polygon class="cls-1" points="129.78 385.44 180.87 364.15 184.06 468.99 138.83 484.95 129.78 385.44"/><polygon class="cls-2" points="309.5 535.37 437.54 525.39 415.36 602.96 309.5 556.69 309.5 535.37"/><polygon class="cls-2" points="444.65 436.27 478.47 431.94 499.18 480.67 445.18 540.35 459.8 486.96 444.65 436.27"/><polygon class="cls-2" points="441.93 427.07 478.88 423.01 486.15 412.58 441.93 376.57 441.93 427.07"/><polygon class="cls-2" points="433.04 372.67 409.56 352.32 361 360.6 431.56 427.07 433.04 372.67"/><polygon class="cls-2" points="422.61 328.27 415.74 344.75 491.16 403.78 554.09 424.88 422.61 328.27"/><polygon class="cls-3" points="406.4 319.35 414.9 323.82 406.38 344.55 373.43 350.1 373.43 340.04 406.4 319.35"/><polygon class="cls-3" points="365.66 271.99 397.87 313.45 368.99 332.33 335.67 315.67 343.45 282.73 365.66 271.99"/><polygon class="cls-3" points="268.67 298.27 281.31 282.72 306.22 306.69 333.58 287.91 325.15 319.33 364.71 340.18 364.14 351.61 333.08 359.36 268.67 298.27"/><polygon class="cls-3" points="297.91 230.53 337.52 276.43 307.54 294.57 286.07 275.69 297.91 230.53"/><polygon class="cls-3" points="298.6 217.2 344.19 270.98 362.7 262.55 351.59 230.53 320.13 208.32 298.6 217.2"/><polygon class="cls-1" points="200.87 188.01 288.22 219.77 291.16 225.48 276.52 271.99 259.87 292.22 238.88 272.49 200.87 188.01"/><polygon class="cls-1" points="181.64 165.93 194.62 175.84 289.03 211.65 311.8 202.39 300.13 153.53 180.5 151.36 181.64 165.93"/><polygon class="cls-1" points="260.52 147.6 300.13 147.6 296.8 119.1 326.79 106.51 324.94 100.22 307.54 97.63 299.76 69.12 311.8 51.35 283.11 58.38 286.07 78.75 236.46 110.21 260.52 147.6"/><polygon class="cls-1" points="317.72 52.83 306.06 68.75 311.8 92.07 326.79 93.92 331.6 101.33 350.48 101.33 352.7 58.02 317.72 52.83"/><polygon class="cls-1" points="222.02 41.36 293.1 26.18 300.5 45.43 274.22 51.35 276.81 74.3 239.79 99.48 222.02 41.36"/><polygon class="cls-1" points="155.62 86.86 217.21 54.68 233.13 99.48 226.84 101.33 251.27 143.9 179.47 143.9 155.62 86.86"/><polygon class="cls-1" points="135.37 61.94 116.14 93.55 118 118.73 68.76 143.9 93.19 194.62 171.33 162.06 169.28 143.9 135.37 61.94"/><polygon class="cls-1" points="83.5 128.03 109.57 114.84 109.57 93.94 68.76 101.33 83.5 128.03"/><polygon class="cls-1" points="96.57 202.35 170.25 171.64 186.85 183.7 196.48 200.17 156.68 184.81 104.3 219.79 96.57 202.35"/></svg>